<svg id="Capa_1" enable-background="new 0 0 511 511" height="512" viewBox="0 0 511 511" width="512" xmlns="http://www.w3.org/2000/svg" xmlns:xlink="http://www.w3.org/1999/xlink"><linearGradient id="SVGID_1_" gradientUnits="userSpaceOnUse" x1="255.5" x2="255.5" y1="50.5" y2="460.5"><stop offset=".00000036422" stop-color="#a7acff"/><stop offset="1" stop-color="#ffc8ff"/></linearGradient><linearGradient id="SVGID_2_" gradientUnits="userSpaceOnUse" x1="255.5" x2="255.5" y1="0" y2="511"><stop offset="0" stop-color="#004ea6"/><stop offset="1" stop-color="#ca42b2"/></linearGradient><g id="Filled_00000124870943803411481780000015203082108361049010_"><path d="m503.5 255.5c0 12.941-10.754 24.884-12.702 37.278-1.999 12.723 4.518 27.392.626 39.379-3.961 12.199-17.887 20.232-23.639 31.5-5.813 11.386-4.168 27.365-11.635 37.625-7.503 10.309-23.224 13.656-32.219 22.651s-12.342 24.717-22.651 32.219c-10.26 7.467-26.239 5.822-37.625 11.635-11.268 5.752-19.301 19.678-31.5 23.639-11.987 3.892-26.656-2.625-39.379-.626-12.392 1.946-24.336 12.7-37.276 12.7-12.941 0-24.884-10.754-37.278-12.702-12.723-1.999-27.392 4.518-39.379.626-12.199-3.961-20.232-17.887-31.5-23.639-11.386-5.813-27.365-4.168-37.625-11.635-10.309-7.503-13.656-23.224-22.651-32.219s-24.717-12.342-32.219-22.651c-7.467-10.26-5.822-26.239-11.635-37.625-5.752-11.268-19.678-19.301-23.639-31.5-3.892-11.987 2.625-26.656.626-39.379-1.946-12.392-12.7-24.336-12.7-37.276 0-12.941 10.754-24.884 12.702-37.278 1.999-12.723-4.518-27.392-.626-39.379 3.961-12.199 17.887-20.232 23.639-31.5 5.813-11.386 4.168-27.365 11.635-37.625 7.503-10.309 23.224-13.656 32.219-22.651s12.342-24.717 22.651-32.219c10.26-7.467 26.239-5.822 37.625-11.635 11.268-5.752 19.301-19.678 31.5-23.639 11.987-3.892 26.656 2.625 39.379.626 12.392-1.946 24.336-12.7 37.276-12.7 12.941 0 24.884 10.754 37.278 12.702 12.723 1.999 27.392-4.518 39.379-.626 12.199 3.961 20.232 17.887 31.5 23.639 11.386 5.813 27.365 4.168 37.625 11.635 10.309 7.503 13.656 23.224 22.651 32.219s24.717 12.342 32.219 22.651c7.467 10.26 5.822 26.239 11.635 37.625 5.752 11.268 19.678 19.301 23.639 31.5 3.892 11.987-2.625 26.656-.626 39.378 1.946 12.393 12.7 24.337 12.7 37.277z" fill="#fff"/><circle cx="255.5" cy="255.5" fill="url(#SVGID_1_)" r="205"/><path d="m457.478 290.701c-7.5 1.468-55.506 10.701-109.618 17.225 1.619-18.119 2.64-36.037 2.64-52.426s-1.021-34.307-2.64-52.426c54.112 6.524 102.119 15.757 109.618 17.225-2.173-12.555-5.487-24.717-9.834-36.379-11.34-2.277-54.965-10.775-103.685-16.879-6.104-48.72-14.602-92.345-16.879-103.685-11.661-4.346-23.824-7.661-36.379-9.834 1.468 7.5 10.701 55.506 17.225 109.618-18.119-1.619-36.037-2.64-52.426-2.64s-34.307 1.021-52.426 2.64c6.524-54.112 15.757-102.119 17.225-109.618-12.555 2.173-24.717 5.487-36.379 9.834-2.277 11.34-10.775 54.965-16.879 103.685-48.72 6.104-92.345 14.602-103.685 16.879-4.346 11.661-7.661 23.824-9.834 36.379 7.5-1.468 55.506-10.701 109.618-17.225-1.619 18.119-2.64 36.037-2.64 52.426s1.021 34.307 2.64 52.426c-54.112-6.524-102.119-15.757-109.618-17.225 2.173 12.555 5.487 24.717 9.834 36.379 11.34 2.277 54.965 10.775 103.685 16.879 6.104 48.72 14.602 92.345 16.879 103.685 11.661 4.346 23.824 7.661 36.379 9.834-1.468-7.5-10.701-55.506-17.225-109.618 18.119 1.619 36.037 2.64 52.426 2.64s34.307-1.021 52.426-2.64c-6.524 54.112-15.757 102.119-17.225 109.618 12.555-2.173 24.717-5.487 36.379-9.834 2.277-11.34 10.775-54.965 16.879-103.685 48.72-6.104 92.345-14.602 103.685-16.879 4.347-11.661 7.661-23.824 9.834-36.379zm-145.761 21.016c-19.42 1.701-38.661 2.783-56.217 2.783s-36.797-1.082-56.217-2.783c-1.701-19.42-2.783-38.661-2.783-56.217s1.082-36.797 2.783-56.217c19.42-1.701 38.661-2.783 56.217-2.783s36.797 1.082 56.217 2.783c1.701 19.42 2.783 38.661 2.783 56.217s-1.082 36.797-2.783 56.217z" fill="#fff"/><path d="m250.802 230.066c3.067.898 6.328.898 9.395 0 12.679-3.714 24.45 8.058 20.737 20.737-.898 3.067-.898 6.328 0 9.395 3.714 12.679-8.058 24.45-20.737 20.737-3.067-.898-6.328-.898-9.395 0-12.679 3.714-24.45-8.058-20.737-20.737.898-3.067.898-6.328 0-9.395-3.713-12.679 8.059-24.451 20.737-20.737z" fill="#fff"/><path d="m503.671 279.61c3.435-7.135 7.329-15.222 7.329-24.11s-3.894-16.975-7.329-24.109c-2.452-5.094-4.768-9.905-5.464-14.332-.731-4.654.002-10.071.779-15.806 1.1-8.12 2.237-16.516-.428-24.725-2.721-8.379-8.642-14.563-14.367-20.543-3.937-4.112-7.656-7.997-9.726-12.05-2.113-4.14-3.091-9.485-4.125-15.145-1.479-8.089-3.009-16.454-8.125-23.484-5.142-7.065-12.649-11.102-19.909-15.005-5.047-2.714-9.814-5.278-13.071-8.535s-5.82-8.024-8.535-13.071c-3.904-7.26-7.941-14.767-15.006-19.909-7.029-5.116-15.394-6.646-23.483-8.125-5.659-1.035-11.004-2.013-15.144-4.126-4.053-2.069-7.938-5.789-12.05-9.726-5.98-5.726-12.165-11.647-20.544-14.367-8.208-2.666-16.605-1.528-24.725-.429-5.735.777-11.154 1.509-15.806.779-4.428-.696-9.239-3.012-14.332-5.464-7.135-3.434-15.222-7.328-24.11-7.328s-16.975 3.894-24.109 7.329c-5.094 2.452-9.905 4.768-14.332 5.464-4.653.73-10.071-.002-15.806-.779-8.12-1.1-16.517-2.237-24.725.428-8.379 2.721-14.563 8.641-20.543 14.367-4.112 3.938-7.997 7.657-12.05 9.726-4.14 2.113-9.485 3.091-15.145 4.125-8.089 1.479-16.454 3.009-23.484 8.125-7.065 5.142-11.102 12.649-15.005 19.909-2.714 5.047-5.278 9.814-8.535 13.071s-8.024 5.82-13.071 8.535c-7.26 3.904-14.767 7.941-19.909 15.006-5.116 7.029-6.646 15.394-8.125 23.483-1.035 5.659-2.013 11.004-4.126 15.144-2.069 4.053-5.789 7.938-9.726 12.05-5.726 5.98-11.647 12.165-14.367 20.544-2.665 8.208-1.528 16.605-.429 24.725.777 5.735 1.51 11.152.779 15.806-.696 4.428-3.012 9.239-5.464 14.332-3.434 7.135-7.328 15.222-7.328 24.11s3.894 16.975 7.329 24.109c2.452 5.094 4.768 9.905 5.464 14.332.731 4.654-.002 10.071-.779 15.806-1.1 8.12-2.237 16.516.428 24.725 2.721 8.379 8.641 14.563 14.367 20.543 3.938 4.112 7.657 7.997 9.726 12.05 2.113 4.14 3.091 9.485 4.125 15.145 1.479 8.089 3.009 16.454 8.125 23.484 5.142 7.065 12.649 11.102 19.909 15.005 5.047 2.714 9.814 5.278 13.071 8.535s5.82 8.024 8.535 13.071c3.904 7.26 7.941 14.767 15.006 19.909 7.029 5.116 15.394 6.646 23.483 8.125 5.659 1.035 11.004 2.013 15.144 4.126 4.053 2.069 7.938 5.789 12.05 9.726 5.98 5.726 12.165 11.647 20.544 14.367 8.208 2.665 16.605 1.528 24.725.429 5.735-.776 11.153-1.51 15.806-.779 4.428.696 9.239 3.012 14.332 5.464 7.135 3.435 15.222 7.329 24.11 7.329s16.975-3.894 24.109-7.329c5.094-2.452 9.905-4.768 14.332-5.464 4.653-.731 10.071.002 15.806.779 8.12 1.101 16.517 2.237 24.725-.428 8.379-2.721 14.563-8.641 20.543-14.367 4.112-3.938 7.997-7.657 12.05-9.726 4.14-2.113 9.485-3.091 15.145-4.125 8.089-1.479 16.454-3.009 23.484-8.125 7.065-5.142 11.102-12.649 15.005-19.909 2.714-5.047 5.278-9.814 8.535-13.071s8.024-5.82 13.071-8.535c7.26-3.904 14.767-7.941 19.909-15.006 5.116-7.029 6.646-15.394 8.125-23.483 1.035-5.659 2.013-11.004 4.126-15.144 2.069-4.053 5.789-7.938 9.726-12.05 5.726-5.98 11.647-12.165 14.367-20.544 2.665-8.208 1.528-16.605.429-24.725-.777-5.735-1.51-11.152-.779-15.806.695-4.429 3.011-9.24 5.463-14.333zm-13.515-6.506c-2.816 5.849-5.728 11.897-6.767 18.51-1.072 6.821-.154 13.596.733 20.147.914 6.75 1.777 13.126.169 18.08-1.661 5.117-6.166 9.821-10.935 14.803-4.513 4.713-9.18 9.587-12.25 15.603-3.113 6.098-4.338 12.792-5.521 19.266-1.231 6.732-2.395 13.09-5.498 17.355-3.13 4.3-8.84 7.371-14.885 10.622-5.78 3.108-11.757 6.323-16.574 11.139-4.816 4.816-8.031 10.793-11.139 16.574-3.25 6.045-6.321 11.755-10.621 14.884-4.265 3.104-10.624 4.267-17.355 5.498-6.474 1.184-13.168 2.408-19.267 5.521-6.016 3.071-10.89 7.738-15.604 12.251-4.981 4.769-9.686 9.273-14.802 10.935-4.953 1.608-11.329.745-18.079-.169-6.551-.888-13.327-1.805-20.148-.733-6.613 1.04-12.661 3.951-18.51 6.767-6.242 3.005-12.138 5.843-17.603 5.843s-11.361-2.838-17.604-5.844c-5.849-2.816-11.897-5.728-18.51-6.767-2.197-.345-4.389-.484-6.57-.484-4.591 0-9.136.615-13.577 1.217-6.75.914-13.126 1.776-18.08.169-5.117-1.661-9.821-6.166-14.803-10.935-4.713-4.513-9.587-9.18-15.603-12.25-6.098-3.113-12.792-4.338-19.266-5.521-6.732-1.231-13.09-2.395-17.355-5.498-4.3-3.13-7.371-8.84-10.622-14.885-3.108-5.78-6.323-11.757-11.139-16.574-4.816-4.816-10.793-8.031-16.574-11.139-6.045-3.25-11.755-6.321-14.884-10.621-3.104-4.265-4.267-10.624-5.498-17.355-1.184-6.474-2.408-13.168-5.521-19.267-3.071-6.016-7.738-10.89-12.251-15.604-4.769-4.981-9.273-9.686-10.935-14.802-1.608-4.953-.745-11.329.169-18.079.887-6.551 1.805-13.326.733-20.148-1.04-6.613-3.951-12.661-6.767-18.51-3.005-6.242-5.843-12.138-5.843-17.603s2.838-11.361 5.844-17.604c2.816-5.849 5.728-11.897 6.767-18.51 1.072-6.821.154-13.596-.733-20.147-.914-6.75-1.777-13.126-.169-18.08 1.661-5.117 6.166-9.821 10.935-14.803 4.513-4.713 9.18-9.587 12.25-15.603 3.113-6.098 4.338-12.792 5.521-19.266 1.231-6.732 2.395-13.09 5.498-17.355 3.13-4.3 8.84-7.371 14.885-10.622 5.78-3.108 11.757-6.323 16.574-11.139 4.816-4.816 8.031-10.793 11.139-16.574 3.25-6.045 6.321-11.755 10.621-14.884 4.265-3.104 10.624-4.267 17.355-5.498 6.474-1.184 13.168-2.408 19.267-5.521 6.016-3.071 10.89-7.738 15.604-12.251 4.981-4.769 9.686-9.273 14.802-10.935 4.953-1.609 11.329-.745 18.079.169 6.552.887 13.326 1.804 20.148.733 6.613-1.04 12.661-3.951 18.51-6.767 6.242-3.005 12.138-5.843 17.603-5.843s11.361 2.838 17.604 5.844c5.849 2.816 11.897 5.728 18.51 6.767 6.82 1.072 13.596.155 20.147-.733 6.749-.913 13.126-1.777 18.08-.169 5.117 1.661 9.821 6.166 14.803 10.935 4.713 4.513 9.587 9.18 15.603 12.25 6.098 3.113 12.792 4.338 19.266 5.521 6.732 1.231 13.09 2.395 17.355 5.498 4.3 3.13 7.371 8.84 10.622 14.885 3.108 5.78 6.323 11.757 11.139 16.574 4.816 4.816 10.793 8.031 16.574 11.139 6.045 3.25 11.755 6.321 14.884 10.621 3.104 4.265 4.267 10.624 5.498 17.355 1.184 6.474 2.408 13.168 5.521 19.267 3.071 6.016 7.737 10.89 12.25 15.603 4.769 4.981 9.273 9.686 10.935 14.803 1.608 4.953.745 11.329-.169 18.079-.887 6.551-1.805 13.326-.733 20.148 1.04 6.613 3.951 12.661 6.767 18.51 3.005 6.242 5.844 12.138 5.844 17.603s-2.838 11.361-5.844 17.604zm-234.656-230.104c-117.173 0-212.5 95.327-212.5 212.5s95.327 212.5 212.5 212.5 212.5-95.327 212.5-212.5-95.327-212.5-212.5-212.5zm179.841 130.9c-18.433-3.468-50.119-9.066-84.715-13.569-4.522-34.735-10.084-66.304-13.533-84.675 43.419 19.777 78.469 54.826 98.248 98.244zm6.637 146.655c-14.483 2.835-49.726 9.439-89.448 14.733.802-6.847 1.547-13.757 2.214-20.658 39.469-4.938 75.257-11.186 93.167-14.488-1.613 6.953-3.606 13.761-5.933 20.413zm11.022-65.055c0 9.791-.727 19.415-2.11 28.828-14.355 2.714-52.138 9.573-94.803 15.013 1.192-15.189 1.913-30.067 1.913-43.841s-.721-28.652-1.913-43.841c42.649 5.438 80.444 12.299 94.803 15.013 1.383 9.413 2.11 19.037 2.11 28.828zm-98.256-59.131c-.667-6.901-1.412-13.81-2.214-20.658 39.706 5.292 74.962 11.898 89.448 14.733 2.327 6.652 4.32 13.459 5.932 20.412-17.909-3.301-53.697-9.549-93.166-14.487zm-150.744 59.131c0-15.404.854-32.187 2.237-49.276 18.332-1.475 34.882-2.224 49.263-2.224s30.931.749 49.263 2.224c1.383 17.09 2.237 33.873 2.237 49.276s-.854 32.187-2.237 49.276c-18.332 1.475-34.882 2.224-49.263 2.224s-30.931-.749-49.263-2.224c-1.383-17.089-2.237-33.872-2.237-49.276zm99.411-64.43c-17.721-1.373-33.807-2.07-47.911-2.07s-30.19.697-47.911 2.07c.681-7.019 1.435-14.035 2.239-20.979 16.946-1.387 32.289-2.091 45.672-2.091s28.726.704 45.672 2.091c.804 6.943 1.558 13.959 2.239 20.979zm-114.411 64.43c0 67.214 15.841 159.695 21.862 192.412-6.953-1.613-13.762-3.605-20.414-5.933-5.104-26.111-22.448-119.774-22.448-186.479s17.344-160.368 22.447-186.479c6.653-2.327 13.461-4.32 20.414-5.933-6.02 32.717-21.861 125.198-21.861 192.412zm18.589 64.43c17.722 1.373 33.807 2.07 47.911 2.07s30.19-.697 47.911-2.07c-.681 7.019-1.435 14.035-2.239 20.979-16.946 1.387-32.289 2.091-45.672 2.091s-28.726-.704-45.672-2.091c-.804-6.943-1.558-13.959-2.239-20.979zm114.411-64.43c0-67.214-15.841-159.695-21.862-192.412 6.953 1.613 13.762 3.605 20.414 5.933 5.104 26.111 22.448 119.774 22.448 186.479s-17.344 160.368-22.447 186.479c-6.653 2.327-13.461 4.32-20.414 5.933 6.02-32.717 21.861-125.198 21.861-192.412zm-37.674-195.39c2.704 14.322 9.531 52 14.994 94.786-16.142-1.257-30.851-1.896-43.82-1.896s-27.678.639-43.82 1.896c5.463-42.786 12.29-80.464 14.994-94.786 9.413-1.383 19.035-2.11 28.826-2.11s19.413.727 28.826 2.11zm-110.419 15.546c-3.449 18.371-9.011 49.94-13.533 84.675-34.596 4.503-66.281 10.1-84.715 13.569 19.779-43.418 54.829-78.467 98.248-98.244zm-18.994 223.685c-42.649-5.438-80.444-12.299-94.803-15.013-1.383-9.413-2.11-19.037-2.11-28.828s.727-19.415 2.11-28.828c14.355-2.714 52.138-9.573 94.803-15.013-1.192 15.189-1.913 30.067-1.913 43.841s.721 28.652 1.913 43.841zm-91.824.801c17.91 3.302 53.698 9.55 93.167 14.488.667 6.901 1.412 13.81 2.214 20.658-39.706-5.292-74.962-11.898-89.448-14.733-2.328-6.652-4.32-13.46-5.933-20.413zm93.167-103.773c-39.469 4.938-75.257 11.186-93.167 14.488 1.613-6.953 3.605-13.76 5.933-20.412 14.483-2.835 49.726-9.439 89.448-14.733-.802 6.847-1.547 13.757-2.214 20.657zm-80.597 140.731c18.433 3.468 50.119 9.066 84.715 13.569 4.522 34.735 10.084 66.305 13.533 84.675-43.419-19.777-78.469-54.826-98.248-98.244zm151.015 113.79c-2.704-14.322-9.531-52-14.994-94.786 16.142 1.257 30.851 1.896 43.82 1.896s27.678-.639 43.82-1.896c-5.463 42.786-12.29 80.464-14.994 94.786-9.413 1.383-19.036 2.11-28.826 2.11s-19.413-.727-28.826-2.11zm110.419-15.546c3.449-18.371 9.011-49.94 13.533-84.675 34.596-4.503 66.281-10.1 84.715-13.569-19.779 43.418-54.829 78.467-98.248 98.244zm-72.054-146.203c6.286 0 12.326-2.472 16.978-7.124 6.356-6.356 8.642-15.301 6.116-23.927-.497-1.694-.497-3.485 0-5.179 2.526-8.626.24-17.571-6.116-23.927-6.356-6.355-15.301-8.642-23.927-6.116-1.693.496-3.485.496-5.179 0-8.625-2.527-17.57-.24-23.927 6.116-6.356 6.356-8.642 15.301-6.116 23.927.497 1.694.497 3.485 0 5.179-2.526 8.626-.24 17.571 6.116 23.927 6.357 6.356 15.3 8.641 23.927 6.116 1.693-.496 3.485-.496 5.179 0 2.312.677 4.646 1.008 6.949 1.008zm-16.345-15.404c-3.282.962-6.686.092-9.104-2.327-2.418-2.418-3.289-5.822-2.327-9.104 1.304-4.453 1.304-9.16 0-13.612-.961-3.282-.091-6.686 2.327-9.104s5.82-3.29 9.104-2.327c4.452 1.304 9.16 1.304 13.611 0 3.282-.961 6.686-.092 9.104 2.327 2.418 2.418 3.289 5.822 2.327 9.104-1.304 4.453-1.304 9.16 0 13.612.961 3.282.091 6.686-2.327 9.104-2.417 2.419-5.822 3.289-9.104 2.327-2.227-.652-4.516-.978-6.806-.978-2.289 0-4.579.326-6.805.978z" fill="url(#SVGID_2_)"/></g></svg>