<svg id="Capa_1" enable-background="new 0 0 511 511" height="512" viewBox="0 0 511 511" width="512" xmlns="http://www.w3.org/2000/svg" xmlns:xlink="http://www.w3.org/1999/xlink"><linearGradient id="SVGID_1_" gradientUnits="userSpaceOnUse" x1="255.5" x2="255.5" y1="65.5" y2="445.5"><stop offset=".00000036422" stop-color="#a7acff"/><stop offset="1" stop-color="#ffc8ff"/></linearGradient><linearGradient id="SVGID_2_" gradientUnits="userSpaceOnUse" x1="255.5" x2="255.5" y1="0" y2="511"><stop offset="0" stop-color="#004ea6"/><stop offset="1" stop-color="#ca42b2"/></linearGradient><g id="Filled"><circle cx="255.5" cy="255.5" fill="#fff" r="248"/><circle cx="255.5" cy="255.5" fill="url(#SVGID_1_)" r="190"/><path d="m404.612 224.612c-17.269 28.73-37.049 47.312-57.112 52.888-25.073-8.73-45-34-48-59 9.706-21.873 28.197-36.632 52.888-46.112 9.224-9.224 28.392-5.011 42.813 9.41 14.422 14.422 18.635 33.59 9.411 42.814zm-169.673 83.292c-3.276-12.627-21.935-18.71-41.676-13.588s-33.088 19.51-29.812 32.137c-4.343 26.089-.992 49.51 12.943 68.963 23.071 10.085 54.955 5.715 75.189-11.473 5.362-20.121-.631-46.59-16.644-76.039zm-29.281-199.306c-11.815-5.528-28.4 4.965-37.043 23.438-8.643 18.472-6.071 37.929 5.744 43.457 17.327 19.982 37.505 32.337 61.376 34.007 22.481-11.34 39.447-38.687 39.11-65.234-12.08-16.961-36.291-29.224-69.187-35.668zm-20.158 126.902c0-11.046-8.954-20-20-20-.689 0-1.369.035-2.04.103-3.834-8.884-12.67-15.103-22.96-15.103-13.807 0-25 11.193-25 25-11.046 0-20 8.954-20 20 0 8.223 4.966 15.28 12.06 18.354-.035.545-.06 1.093-.06 1.646 0 13.807 11.193 25 25 25 10.252 0 19.058-6.174 22.916-15.004.028 0 .056.004.084.004 11.046 0 20-8.954 20-20 0-.878-.076-1.737-.186-2.585 6.077-3.432 10.186-9.939 10.186-17.415zm183.19 90.302c-3.106-10.6-14.217-16.675-24.817-13.57-.661.194-1.304.419-1.928.672-6.178-7.447-16.405-10.931-26.281-8.038-13.25 3.882-20.844 17.771-16.962 31.021-10.6 3.106-16.675 14.217-13.57 24.817 2.312 7.891 9.062 13.267 16.734 14.222.119.533.25 1.066.405 1.597 3.882 13.25 17.771 20.844 31.021 16.962 9.839-2.883 16.554-11.283 17.772-20.842.027-.008.055-.011.082-.019 10.6-3.106 16.675-14.217 13.57-24.817-.247-.842-.561-1.645-.905-2.428 4.867-5.003 6.981-12.403 4.879-19.577zm-48.19-210.302c-9.389 0-17 7.611-17 17s7.611 17 17 17 17-7.611 17-17-7.611-17-17-17zm-61 126c-9.389 0-17 7.611-17 17s7.611 17 17 17 17-7.611 17-17-7.611-17-17-17z" fill="#fff"/><path d="m400.505 176.495c-17.054-17.054-39.588-21.471-52.204-10.541-27.096 10.721-45.831 27.361-55.657 49.504l-.837 1.886.246 2.049c3.392 28.265 25.673 55.682 52.98 65.189l2.215.771 2.26-.628c21.611-6.006 42.732-25.22 61.119-55.575 11.444-12.521 7.14-35.392-10.122-52.655zm-34.963-1.486c6.834 0 16.113 3.85 24.356 12.092 12.261 12.263 14.801 26.816 9.41 32.207-5.393 5.39-19.944 2.853-32.207-9.41s-14.801-26.816-9.41-32.207c1.768-1.767 4.518-2.682 7.851-2.682zm-41.5 77.784c-3.05-3.333-5.791-6.956-8.153-10.765 13.579-4.753 25.038-11.229 35.704-27.008 1.498 1.875 3.128 3.711 4.902 5.485 1.231 1.23 2.493 2.387 3.775 3.485-12.55 18.479-20.819 23.951-36.228 28.803zm15.96-66.44c.115 4.507 1.136 9.264 3.009 14.032-10.073 17.904-20.008 23.496-33.584 28.016-.972-2.894-1.719-5.824-2.194-8.761 6.642-13.859 17.453-24.841 32.769-33.287zm7.74 83.233c-3.649-1.456-7.187-3.334-10.561-5.55 13.612-5.514 23.127-13.423 35.584-31.753 4.939 2.423 9.936 3.94 14.725 4.489-12.779 17.133-26.301 28.329-39.748 32.814zm-156.363 17.47c-10.916 2.833-20.56 8.307-27.152 15.414-6.849 7.383-9.852 16.106-8.4 24.194-4.508 28.817.353 53.414 14.47 73.12l1.202 1.678 1.891.827c9.221 4.031 19.542 5.973 30.014 5.973 19.149-.001 38.788-6.5 53.035-18.602l1.788-1.518.604-2.267c5.776-21.673-.082-49.619-16.929-80.853-4.995-16.215-26.894-24.096-50.523-17.966zm-16.155 25.615c4.601-4.96 11.863-9.004 19.923-11.095 4.245-1.102 8.297-1.592 12.02-1.592 10.997 0 19.082 4.291 20.513 9.805 1.241 4.782-2.295 9.507-4.513 11.898-4.601 4.96-11.862 9.004-19.922 11.095-16.785 4.357-30.618-.832-32.533-8.212-1.243-4.782 2.293-9.508 4.512-11.899zm43.171 78.971c-4.419.94-8.931 1.466-13.412 1.572 2.785-14.115 3.011-27.275-5.185-44.468 2.376-.34 4.784-.814 7.213-1.444 1.672-.434 3.309-.937 4.915-1.491 9.57 20.185 10.097 30.087 6.469 45.831zm-49.184-47.436c3.945 2.186 8.562 3.723 13.623 4.524 10.326 17.755 10.111 29.153 7.126 43.146-2.987-.628-5.892-1.471-8.664-2.55-8.581-12.749-12.568-27.635-12.085-45.12zm75.672 35.518c-3.104 2.407-6.517 4.505-10.137 6.291 2.146-14.531.15-26.743-9.342-46.779 3.295-2.176 6.249-4.643 8.758-7.348.924-.997 1.778-2.018 2.561-3.058 8.289 19.694 11.109 37.031 8.16 50.894zm-75.226-198.225c19.323 21.849 41.37 33.791 65.553 35.483l2.059.144 1.843-.93c25.417-12.821 43.598-43.113 43.231-72.025l-.03-2.345-1.361-1.91c-13.013-18.272-38.279-31.582-73.088-38.523-7.811-3.216-17.191-1.942-25.928 3.586-8.192 5.183-15.335 13.663-20.115 23.879-4.779 10.214-6.712 21.134-5.442 30.744 1.32 9.982 6.124 17.857 13.278 21.897zm64.513 20.342c-15.3-1.522-29.315-7.949-42.48-19.48 2.147-.836 4.288-1.919 6.39-3.25 1.992-1.261 3.922-2.72 5.771-4.348 20.281 3.366 28.928 10.802 37.808 22.03-2.389 1.9-4.89 3.601-7.489 5.048zm18.098-15.767c-9.097-11.148-19.092-19.715-37.568-24.365 1.268-2.065 2.442-4.225 3.495-6.476.733-1.567 1.388-3.138 1.981-4.709 21.338 5.562 30.51 12.197 39.698 23.696-2.151 4.193-4.71 8.184-7.606 11.854zm15.053-39.338c-.122 3.824-.659 7.686-1.548 11.511-10.69-11.062-22.646-17.297-42.044-22.304.598-5.478.312-10.698-.805-15.393 20.463 6.175 35.597 15.072 44.397 26.186zm-91.913-11.522c3.529-7.542 8.832-13.943 14.549-17.56 2.03-1.285 5.435-3.04 8.876-3.04 1.231 0 2.467.225 3.647.776 6.905 3.231 9.478 17.778 2.129 33.486-3.529 7.542-8.832 13.942-14.549 17.56-2.756 1.744-8.05 4.356-12.522 2.264-4.475-2.094-5.86-7.831-6.288-11.064-.886-6.708.629-14.88 4.158-22.422zm260.758-60.38c-48.258-48.257-112.419-74.834-180.666-74.834s-132.408 26.577-180.666 74.834c-48.257 48.258-74.834 112.419-74.834 180.666s26.577 132.408 74.834 180.666c48.258 48.257 112.419 74.834 180.666 74.834s132.408-26.577 180.666-74.834c48.257-48.258 74.834-112.419 74.834-180.666s-26.577-132.408-74.834-180.666zm-180.666 421.166c-132.612 0-240.5-107.888-240.5-240.5s107.888-240.5 240.5-240.5 240.5 107.888 240.5 240.5-107.888 240.5-240.5 240.5zm0-438c-108.902 0-197.5 88.598-197.5 197.5s88.598 197.5 197.5 197.5 197.5-88.598 197.5-197.5-88.598-197.5-197.5-197.5zm0 380c-100.631 0-182.5-81.869-182.5-182.5s81.869-182.5 182.5-182.5 182.5 81.869 182.5 182.5-81.869 182.5-182.5 182.5zm-95.368-155.39c12.577-2.142 22.27-12.852 22.841-25.891 6.277-5.175 10.027-12.946 10.027-21.219 0-14.335-11.024-26.144-25.041-27.391-5.896-9.315-16.201-15.109-27.459-15.109-15.645 0-28.742 11.11-31.817 25.855-11.876 3.041-20.683 13.834-20.683 26.645 0 9.249 4.628 17.743 12.119 22.794 1.421 16.618 15.401 29.706 32.381 29.706 11.357 0 21.765-5.914 27.632-15.39zm-11.589-10.117c-2.788 6.383-9.085 10.507-16.043 10.507-9.649 0-17.5-7.851-17.5-17.5 0-.389.019-.774.044-1.157l.345-5.271-4.847-2.1c-4.582-1.985-7.542-6.488-7.542-11.472 0-6.893 5.607-12.5 12.5-12.5h7.5v-7.5c0-9.649 7.851-17.5 17.5-17.5 6.992 0 13.302 4.151 16.075 10.575l2.176 5.043 5.465-.553c.425-.043.857-.065 1.284-.065 6.893 0 12.5 5.607 12.5 12.5 0 4.494-2.442 8.664-6.374 10.885l-4.396 2.482.646 5.007c.084.656.124 1.172.124 1.625 0 6.812-5.478 12.37-12.26 12.498l-5.232-.002zm227.344 51.2c-2.065-7.049-6.752-12.872-13.197-16.396-5.72-3.128-12.22-4.112-18.536-2.85-8.277-7.28-19.793-9.943-30.599-6.777-15.01 4.398-24.455 18.738-23.264 33.749-4.209 2.486-7.688 6.068-10.094 10.469-3.524 6.445-4.328 13.876-2.262 20.926 2.6 8.875 9.429 15.725 18.037 18.466 2.764 7.138 7.905 13.015 14.699 16.73 4.85 2.651 10.17 4 15.547 4 3.069 0 6.157-.439 9.184-1.327 10.898-3.193 19.224-11.795 22.19-22.539 11.468-5.592 17.759-18.597 14.64-31.269 4.567-6.731 5.981-15.243 3.655-23.182zm-17.451 16.455-3.522 3.621 2.031 4.625c.264.602.446 1.084.574 1.521 1.92 6.555-1.798 13.446-8.255 15.443l-5.013 1.431-.626 4.904c-.881 6.909-5.765 12.637-12.441 14.594-9.259 2.713-19.001-2.613-21.714-11.873-.11-.374-.2-.749-.284-1.124l-1.152-5.155-5.241-.652c-4.955-.617-9.062-4.105-10.463-8.889-.939-3.204-.574-6.582 1.028-9.512 1.602-2.929 4.249-5.06 7.453-5.999l7.198-2.108-2.109-7.198c-2.713-9.26 2.613-19.001 11.873-21.715 1.627-.477 3.284-.708 4.924-.708 5.125 0 10.092 2.257 13.476 6.337l3.508 4.229 5.089-2.069c.396-.161.803-.303 1.212-.423 3.204-.938 6.581-.573 9.512 1.028 2.929 1.602 5.06 4.249 5.999 7.453 1.262 4.314.091 9.003-3.057 12.239zm-37.936-183.148c13.509 0 24.5-10.991 24.5-24.5s-10.991-24.5-24.5-24.5-24.5 10.991-24.5 24.5 10.991 24.5 24.5 24.5zm0-34c5.238 0 9.5 4.262 9.5 9.5s-4.262 9.5-9.5 9.5-9.5-4.262-9.5-9.5 4.262-9.5 9.5-9.5zm-61 111c-13.509 0-24.5 10.991-24.5 24.5s10.991 24.5 24.5 24.5 24.5-10.991 24.5-24.5-10.991-24.5-24.5-24.5zm0 34c-5.238 0-9.5-4.262-9.5-9.5s4.262-9.5 9.5-9.5 9.5 4.262 9.5 9.5-4.262 9.5-9.5 9.5z" fill="url(#SVGID_2_)"/></g></svg>