<svg id="Capa_1" enable-background="new 0 0 511 511" height="512" viewBox="0 0 511 511" width="512" xmlns="http://www.w3.org/2000/svg" xmlns:xlink="http://www.w3.org/1999/xlink"><linearGradient id="SVGID_1_" gradientUnits="userSpaceOnUse" x1="255.5" x2="255.5" y1="40.5" y2="470.5"><stop offset=".00000083866" stop-color="#75d1f4"/><stop offset="1" stop-color="#b3fff3"/></linearGradient><linearGradient id="SVGID_2_" gradientUnits="userSpaceOnUse" x1="258.843" x2="258.843" y1="113.5" y2="414.5"><stop offset=".00000036422" stop-color="#a7acff"/><stop offset="1" stop-color="#ffc8ff"/></linearGradient><linearGradient id="SVGID_3_" gradientUnits="userSpaceOnUse" x1="255.5" x2="255.5" y1="0" y2="511"><stop offset="0" stop-color="#004ea6"/><stop offset="1" stop-color="#ca42b2"/></linearGradient><g id="Filled_00000150786609000356426940000014218541597343313330_"><circle cx="255.5" cy="255.5" fill="#fff" r="248"/><circle cx="255.5" cy="255.5" fill="url(#SVGID_1_)" r="215"/><path d="m187.154 132.37c13.503 9.601 19.26 24.683 12.859 33.684-6.401 9.002-22.536 8.516-36.039-1.086s-19.26-24.683-12.859-33.684c6.4-9.002 22.536-8.516 36.039 1.086zm39.484 229.898c-9.178-6.146-24.092.032-33.31 13.799-9.219 13.767-9.252 29.909-.074 36.055s24.092-.032 33.31-13.799c9.219-13.767 9.252-29.909.074-36.055zm45.782-122.197c-10.672-2.85-22.789 7.816-27.064 23.823-4.276 16.007.91 31.295 11.581 34.145 10.672 2.85 22.789-7.816 27.064-23.823 4.276-16.007-.909-31.294-11.581-34.145zm93.091 126.532c4.817-9.94-3.366-23.855-18.276-31.08s-30.902-5.024-35.719 4.917c-4.817 9.94 3.366 23.855 18.276 31.08s30.902 5.023 35.719-4.917zm50.783-123.507c7.529-8.082 3.805-23.789-8.319-35.083-12.123-11.293-28.055-13.897-35.584-5.815s-3.805 23.789 8.319 35.083 28.055 13.897 35.584 5.815zm-282.251 60.032c15.24-6.501 24.081-20.007 19.747-30.167s-20.201-13.126-35.441-6.626c-15.24 6.501-24.081 20.007-19.747 30.167 4.333 10.16 20.201 13.127 35.441 6.626zm190.414-158.772c.722-16.553-7.638-30.362-18.674-30.843-11.035-.481-20.566 12.547-21.288 29.1s7.638 30.362 18.674 30.843c11.034.481 20.565-12.547 21.288-29.1z" fill="url(#SVGID_2_)"/><path d="m159.627 171.081c7.724 5.492 16.533 8.654 24.803 8.904.344.01.686.015 1.026.015 8.814 0 16.308-3.466 20.668-9.599 8.936-12.567 2.512-31.957-14.625-44.143-7.724-5.492-16.533-8.654-24.803-8.903-9.255-.267-17.165 3.214-21.694 9.584s-5.232 14.985-1.929 23.639c2.951 7.729 8.83 15.01 16.554 20.503zm-2.4-35.451c1.991-2.8 5.921-3.292 8.435-3.292.204 0 .4.003.583.009 5.266.159 11.303 2.395 16.562 6.135 10.806 7.684 14.52 18.408 11.093 23.226-2.153 3.028-6.582 3.358-9.018 3.283-5.266-.159-11.303-2.395-16.562-6.135-5.26-3.74-9.354-8.708-11.233-13.629-.872-2.285-2.014-6.568.14-9.597zm73.585 220.406c-12.814-8.58-32.015-1.614-43.716 15.858-11.7 17.472-10.828 37.88 1.985 46.46 3.71 2.485 7.955 3.666 12.4 3.666 10.903 0 23.003-7.111 31.315-19.523 11.7-17.473 10.828-37.881-1.984-46.461zm-10.48 38.114c-7.378 11.015-17.994 15.03-22.905 11.74-4.913-3.29-5.245-14.633 2.133-25.65 5.708-8.525 13.354-12.855 18.798-12.855 1.592 0 2.996.371 4.107 1.115 4.912 3.289 5.245 14.633-2.133 25.65zm70.916-117.998c2.445-9.157 2.329-18.515-.329-26.351-2.975-8.771-9.012-14.959-16.562-16.976-14.9-3.983-30.82 8.818-36.246 29.133-2.445 9.157-2.329 18.515.329 26.351 2.975 8.771 9.012 14.959 16.562 16.976 1.83.489 3.673.724 5.512.724 13.136 0 25.973-12.036 30.734-29.857zm-14.493-3.871c-3.422 12.81-12.174 20.041-17.883 18.512-3.589-.958-5.443-4.986-6.228-7.301-1.692-4.989-1.708-11.427-.042-17.662 3.119-11.676 10.663-18.714 16.299-18.714.548 0 1.078.066 1.584.202 3.589.958 5.443 4.986 6.228 7.301 1.693 4.989 1.708 11.426.042 17.662zm73.75 56.492c-18.923-9.169-39.013-5.48-45.739 8.396-6.724 13.877 2.832 31.93 21.755 41.1 7.018 3.4 14.196 5.032 20.794 5.032 11.193 0 20.714-4.697 24.945-13.428 3.408-7.033 2.67-15.646-2.025-23.63-4.194-7.133-11.201-13.337-19.73-17.47zm8.256 34.559c-2.578 5.32-13.766 7.221-25.699 1.438-11.931-5.782-17.375-15.74-14.797-21.06 2.578-5.321 13.767-7.219 25.699-1.438 5.808 2.814 10.671 7.033 13.341 11.574 1.239 2.108 3.077 6.142 1.456 9.486zm68.041-138.303c-1.909-8.051-6.78-16.043-13.714-22.503-15.386-14.333-35.672-16.723-46.184-5.439-10.511 11.284-6.692 31.35 8.694 45.683 6.935 6.459 15.252 10.753 23.417 12.087 1.77.29 3.508.432 5.2.432 7.043 0 13.271-2.469 17.566-7.08 5.328-5.719 7.158-14.168 5.021-23.18zm-15.995 12.955c-2.532 2.719-6.958 2.464-9.372 2.069-5.199-.849-10.89-3.859-15.612-8.259-9.702-9.038-11.973-20.157-7.943-24.483 1.425-1.53 3.754-2.334 6.599-2.334 5.197 0 12.115 2.684 18.384 8.524 4.723 4.399 8.128 9.862 9.344 14.988.564 2.38 1.132 6.776-1.4 9.495zm-250.118 32.035c-6.051-14.184-25.942-18.833-45.283-10.582-19.342 8.25-29.753 25.824-23.703 40.008 3.066 7.189 10.047 12.289 19.151 13.991 2.291.428 4.671.64 7.106.64 6.209 0 12.763-1.377 19.025-4.048 19.342-8.252 29.754-25.825 23.704-40.009zm-29.589 26.211c-5.937 2.532-12.312 3.429-17.49 2.461-2.403-.449-6.652-1.713-8.11-5.131-2.319-5.438 3.595-15.123 15.791-20.326 4.706-2.007 9.245-2.877 13.179-2.877 6.265 0 10.997 2.207 12.421 5.547 2.32 5.438-3.595 15.123-15.791 20.326zm171.741-115.281c.315.014.626.021.939.021 14.982 0 27.272-15.708 28.169-36.287.413-9.468-1.719-18.581-6.005-25.659-4.797-7.923-12.026-12.663-19.835-13.003-15.377-.669-28.191 15.258-29.107 36.266-.917 21.007 10.433 37.99 25.839 38.662zm-10.854-38.01c.57-13.061 7.367-21.939 13.219-21.939.083 0 .167.002.25.005 3.712.162 6.391 3.695 7.657 5.787 2.728 4.506 4.132 10.789 3.851 17.237-.578 13.248-7.601 22.179-13.469 21.934-3.712-.162-6.391-3.695-7.657-5.787-2.728-4.506-4.132-10.788-3.851-17.237zm120.844-44.77c-42.024-42.025-97.899-65.169-157.331-65.169s-115.307 23.144-157.331 65.169c-42.025 42.024-65.169 97.899-65.169 157.331s23.144 115.307 65.169 157.331c42.024 42.025 97.899 65.169 157.331 65.169s115.307-23.144 157.331-65.169c42.025-42.024 65.169-97.899 65.169-157.331s-23.144-115.307-65.169-157.331zm-157.331 364.831c-114.416 0-207.5-93.084-207.5-207.5s93.084-207.5 207.5-207.5 207.5 93.084 207.5 207.5-93.084 207.5-207.5 207.5zm180.666-388.166c-48.258-48.257-112.419-74.834-180.666-74.834s-132.408 26.577-180.666 74.834c-48.257 48.258-74.834 112.419-74.834 180.666s26.577 132.408 74.834 180.666c48.258 48.257 112.419 74.834 180.666 74.834s132.408-26.577 180.666-74.834c48.257-48.258 74.834-112.419 74.834-180.666s-26.577-132.408-74.834-180.666zm-180.666 421.166c-132.612 0-240.5-107.888-240.5-240.5s107.888-240.5 240.5-240.5 240.5 107.888 240.5 240.5-107.888 240.5-240.5 240.5zm-57-273h15v15h-15zm-75-5h-15v-15h15zm120-120h-15v-15h15zm-95 243h15v15h-15zm130 62h15v15h-15zm110-100h15v15h-15zm-70-50h15v15h-15zm65-105h-15v-15h15z" fill="url(#SVGID_3_)"/></g></svg>