<svg id="Capa_1" enable-background="new 0 0 511 511" height="512" viewBox="0 0 511 511" width="512" xmlns="http://www.w3.org/2000/svg" xmlns:xlink="http://www.w3.org/1999/xlink"><linearGradient id="SVGID_1_" gradientUnits="userSpaceOnUse" x1="255" x2="255" y1="109.855" y2="408.5"><stop offset=".00000083866" stop-color="#75d1f4"/><stop offset="1" stop-color="#b3fff3"/></linearGradient><linearGradient id="SVGID_2_" gradientUnits="userSpaceOnUse" x1="255.5" x2="255.5" y1="0" y2="511"><stop offset="0" stop-color="#004ea6"/><stop offset="1" stop-color="#ca42b2"/></linearGradient><g id="Filled_00000105389700616338571550000010684128667040590245_"><path d="m475.587 141.115c11.161-13.094 17.913-30.061 17.913-48.615 0-41.421-33.579-75-75-75-18.554 0-35.521 6.752-48.615 17.913-34.227-17.825-73.126-27.913-114.385-27.913-136.967 0-248 111.033-248 248 0 41.26 10.088 80.158 27.913 114.385-11.161 13.094-17.913 30.061-17.913 48.615 0 41.421 33.579 75 75 75 18.554 0 35.522-6.751 48.615-17.913 34.227 17.825 73.126 27.913 114.385 27.913 136.967 0 248-111.033 248-248 0-41.26-10.088-80.158-27.913-114.385z" fill="#fff"/><circle cx="255.5" cy="255.5" fill="#fff" r="215"/><path d="m230.038 124.591c8.775 13.379 8.805 30.102-11.976 43.733s-68.562 6.101-68.562 6.101c22-26 19-43 35.654-56.272 19.436-15.488 36.109-6.941 44.884 6.438zm43.922 251.602c-1.086 15.963 7.09 30.552 31.885 32.238 24.796 1.687 62.742-28.309 62.742-28.309-31.924-11.868-37.647-28.155-58.67-31.552-24.534-3.965-34.871 11.66-35.957 27.623zm-54.46-142.693c-16.569 0-30 13.431-30 30s13.431 30 30 30 30-13.431 30-30-13.431-30-30-30zm130-110c-16.569 0-30 13.431-30 30s13.431 30 30 30 30-13.431 30-30-13.431-30-30-30zm-170 230c-11.046 0-20 8.954-20 20s8.954 20 20 20 20-8.954 20-20-8.954-20-20-20zm-70-100c-11.046 0-20 8.954-20 20s8.954 20 20 20 20-8.954 20-20-8.954-20-20-20zm210-23c-11.046 0-20 8.954-20 20s8.954 20 20 20 20-8.954 20-20-8.954-20-20-20zm81 53c-11.046 0-20 8.954-20 20s8.954 20 20 20 20-8.954 20-20-8.954-20-20-20z" fill="url(#SVGID_1_)"/><path d="m484.462 142.024c10.697-14.239 16.538-31.637 16.538-49.524 0-45.49-37.009-82.5-82.5-82.5-17.887 0-35.284 5.841-49.524 16.538-35.027-17.375-74.152-26.538-113.476-26.538-68.247 0-132.408 26.576-180.666 74.834-48.257 48.258-74.834 112.419-74.834 180.666 0 39.323 9.164 78.448 26.538 113.476-10.697 14.239-16.538 31.637-16.538 49.524 0 45.49 37.009 82.5 82.5 82.5 17.887 0 35.284-5.841 49.524-16.538 35.027 17.375 74.152 26.538 113.476 26.538 68.247 0 132.408-26.576 180.666-74.834 48.257-48.258 74.834-112.419 74.834-180.666 0-39.323-9.164-78.448-26.538-113.476zm-228.962 353.976c-38.567 0-76.922-9.359-110.92-27.065l-4.483-2.334-3.847 3.278c-12.196 10.395-27.733 16.121-43.75 16.121-37.22 0-67.5-30.28-67.5-67.5 0-16.018 5.725-31.555 16.121-43.75l3.279-3.847-2.335-4.482c-17.959-34.485-27.065-71.804-27.065-110.921 0-132.612 107.888-240.5 240.5-240.5 38.567 0 76.922 9.359 110.92 27.065l4.483 2.334 3.847-3.278c12.196-10.395 27.733-16.121 43.75-16.121 37.22 0 67.5 30.28 67.5 67.5 0 16.018-5.725 31.555-16.121 43.75l-3.279 3.847 2.335 4.482c17.959 34.484 27.065 71.803 27.065 110.921 0 132.612-107.888 240.5-240.5 240.5zm0-463c-122.687 0-222.5 99.813-222.5 222.5s99.813 222.5 222.5 222.5 222.5-99.813 222.5-222.5-99.813-222.5-222.5-222.5zm0 430c-114.416 0-207.5-93.084-207.5-207.5s93.084-207.5 207.5-207.5 207.5 93.084 207.5 207.5-93.084 207.5-207.5 207.5zm-33.324-288.404c11.454-7.514 18.289-16.522 20.315-26.779 1.526-7.723.162-15.775-3.927-23.511 4.553-6.284 8.021-13.953 9.367-23.87l-14.863-2.018c-.703 5.18-2.185 9.494-4.24 13.256-5.277-4.78-11.419-7.87-17.966-8.918-6.997-1.117-17.949-.374-30.382 9.534-9.823 7.827-13.84 16.843-18.094 26.388-3.932 8.821-8.387 18.82-18.612 30.904l-8.612 10.178 13.17 2.075c2.55.402 14.997 2.235 29.676 2.235 15.164-.001 32.709-1.959 44.168-9.474zm-46.088-29.814c3.937-8.834 6.78-15.216 13.741-20.763 6.546-5.216 12.825-7.387 18.663-6.453 4.469.715 8.068 3.106 10.775 5.697-3.513 3.129-7.454 6.008-11.594 9.018-1.768 1.285-3.541 2.574-5.295 3.895l9.018 11.986c1.689-1.271 3.396-2.511 5.097-3.748 3.57-2.595 7.267-5.286 10.827-8.288 2.823 9.539-1.643 18.234-13.37 25.926-11.331 7.432-34.445 7.593-50.491 6.383 6.124-9.056 9.641-16.948 12.629-23.653zm163.735 210.505c-8.388-6.231-16.31-12.117-28.709-14.122-15.693-2.534-25.604 2.186-31.152 6.594-5.193 4.125-9.031 9.833-11.285 16.59-3.636-2.27-7.041-5.311-10.194-9.48l-11.964 9.047c6.037 7.983 12.821 12.966 19.871 16.209.23 8.748 2.991 16.434 8.109 22.417 6.796 7.943 17.171 12.442 30.838 13.372.837.058 1.68.085 2.536.085 26.631-.003 61.378-26.841 65.366-29.993l10.459-8.268-12.497-4.646c-14.838-5.516-23.625-12.044-31.378-17.805zm-31.857 45.715c-.546 0-1.085-.018-1.612-.053-9.496-.646-16.379-3.391-20.458-8.158-2.046-2.392-3.221-5.145-3.86-7.87 4.558.864 9.083 1.394 13.45 1.903 2.09.243 4.186.487 6.281.767l1.979-14.869c-2.177-.29-4.354-.544-6.525-.797-5.083-.592-9.933-1.16-14.528-2.164 1.088-3.587 3.052-7.439 6.599-10.257 3.403-2.703 7.834-4.062 13.226-4.062 1.944 0 4.014.177 6.203.531 8.785 1.42 14.394 5.587 22.157 11.354 5.894 4.379 12.832 9.534 22.615 14.423-12.858 8.58-32.025 19.254-45.527 19.252zm-88.466-175.002c-20.678 0-37.5 16.822-37.5 37.5s16.822 37.5 37.5 37.5 37.5-16.822 37.5-37.5-16.822-37.5-37.5-37.5zm0 60c-12.407 0-22.5-10.094-22.5-22.5s10.093-22.5 22.5-22.5 22.5 10.094 22.5 22.5-10.093 22.5-22.5 22.5zm130-95c20.678 0 37.5-16.822 37.5-37.5s-16.822-37.5-37.5-37.5-37.5 16.822-37.5 37.5 16.822 37.5 37.5 37.5zm0-60c12.407 0 22.5 10.094 22.5 22.5s-10.093 22.5-22.5 22.5-22.5-10.094-22.5-22.5 10.093-22.5 22.5-22.5zm-170 215c-15.164 0-27.5 12.337-27.5 27.5s12.336 27.5 27.5 27.5 27.5-12.337 27.5-27.5-12.336-27.5-27.5-27.5zm0 40c-6.893 0-12.5-5.607-12.5-12.5s5.607-12.5 12.5-12.5 12.5 5.607 12.5 12.5-5.607 12.5-12.5 12.5zm-70-140c-15.164 0-27.5 12.337-27.5 27.5s12.336 27.5 27.5 27.5 27.5-12.337 27.5-27.5-12.336-27.5-27.5-27.5zm0 40c-6.893 0-12.5-5.607-12.5-12.5s5.607-12.5 12.5-12.5 12.5 5.607 12.5 12.5-5.607 12.5-12.5 12.5zm210-8c15.164 0 27.5-12.337 27.5-27.5s-12.336-27.5-27.5-27.5-27.5 12.337-27.5 27.5 12.336 27.5 27.5 27.5zm0-40c6.893 0 12.5 5.607 12.5 12.5s-5.607 12.5-12.5 12.5-12.5-5.607-12.5-12.5 5.607-12.5 12.5-12.5zm81 38c-15.164 0-27.5 12.337-27.5 27.5s12.336 27.5 27.5 27.5 27.5-12.337 27.5-27.5-12.336-27.5-27.5-27.5zm0 40c-6.893 0-12.5-5.607-12.5-12.5s5.607-12.5 12.5-12.5 12.5 5.607 12.5 12.5-5.607 12.5-12.5 12.5z" fill="url(#SVGID_2_)"/></g></svg>