<svg id="Capa_1" enable-background="new 0 0 511 511" height="512" viewBox="0 0 511 511" width="512" xmlns="http://www.w3.org/2000/svg" xmlns:xlink="http://www.w3.org/1999/xlink"><linearGradient id="SVGID_1_" gradientUnits="userSpaceOnUse" x1="255.5" x2="255.5" y1="40.5" y2="470.5"><stop offset=".00000036422" stop-color="#a7acff"/><stop offset="1" stop-color="#ffc8ff"/></linearGradient><linearGradient id="SVGID_2_" gradientUnits="userSpaceOnUse" x1="261.459" x2="261.459" y1="195.5" y2="395.934"><stop offset=".00000083866" stop-color="#75d1f4"/><stop offset="1" stop-color="#b3fff3"/></linearGradient><linearGradient id="SVGID_3_" gradientUnits="userSpaceOnUse" x1="255.5" x2="255.5" y1="0" y2="511"><stop offset="0" stop-color="#004ea6"/><stop offset="1" stop-color="#ca42b2"/></linearGradient><g id="Filled_00000071527783186250167130000008225323232757292210_"><circle cx="255.5" cy="255.5" fill="#fff" r="248"/><circle cx="255.5" cy="255.5" fill="url(#SVGID_1_)" r="215"/><path d="m363.292 175.992c-6.919-13.494-16.594-22.584-28.284-28.284l134.35-134.35c7.81-7.81 20.474-7.81 28.284 0 7.81 7.81 7.81 20.474 0 28.284z" fill="#fff"/><path d="m343.176 284.966-43.863-5.179c1.847-1.58 3.408-3.556 4.515-5.898l16.994-35.958c4.193-8.872.419-19.472-8.43-23.676l-35.862-17.039c-8.848-4.204-19.42-.42-23.613 8.452l-16.493 34.898-2.469-4.288c-4.896-8.502-15.739-11.415-24.219-6.507l-34.368 19.895c-8.48 4.909-11.385 15.781-6.489 24.283l19.843 34.459c4.377 7.602 13.504 10.717 21.45 7.787l-18.247 24.415c-5.872 7.856-4.28 18.998 3.555 24.885l35.782 26.886c7.835 5.887 18.948 4.291 24.819-3.565l26.815-35.877c.157-.21.287-.431.434-.646 1.827 1.148 3.921 1.933 6.206 2.203l44.834 5.293c8.231.972 15.69-4.916 16.656-13.147l5.288-45.031c.966-8.223-4.915-15.674-13.138-16.645z" fill="url(#SVGID_2_)"/><path d="m184.62 171.374s-22.096 14.564-39.845 7.753-24.429-32.419-24.429-32.419 22.096-14.564 39.845-7.753 24.429 32.419 24.429 32.419z" fill="#fff"/><path d="m185.959 170.489s35.85-9.352 45.386-34.201-10.854-55.783-10.854-55.783-35.85 9.352-45.386 34.201 10.854 55.783 10.854 55.783z" fill="#fff"/><path d="m454.548 95.343 48.398-48.398c10.721-10.722 10.721-28.169-.001-38.892-10.723-10.721-28.169-10.721-38.892 0l-48.397 48.398c-45.268-36.447-101.86-56.451-160.156-56.451-68.247 0-132.408 26.576-180.666 74.834s-74.834 112.419-74.834 180.666 26.576 132.408 74.834 180.666 112.419 74.834 180.666 74.834 132.408-26.576 180.666-74.834 74.834-112.419 74.834-180.666c0-58.298-20.004-114.89-56.452-160.157zm20.112-76.682c4.875-4.875 12.806-4.872 17.679-.001 4.874 4.874 4.874 12.806 0 17.679l-127.544 127.544c-4.875-7.089-10.765-13.02-17.617-17.738zm-142.939 135.788c10.854 5.292 18.997 13.458 24.897 24.965l4.697 9.161 59.057-59.056c27.542 36.031 42.628 80.443 42.628 125.981 0 114.416-93.084 207.5-207.5 207.5s-207.5-93.084-207.5-207.5 93.084-207.5 207.5-207.5c45.538 0 89.95 15.086 125.981 42.628l-59.212 59.213zm-76.221 341.551c-132.612 0-240.5-107.888-240.5-240.5s107.888-240.5 240.5-240.5c54.332 0 107.088 18.463 149.482 52.126l-12.81 12.811c-38.917-30.308-87.174-46.937-136.672-46.937-59.432 0-115.307 23.145-157.331 65.169s-65.169 97.899-65.169 157.331 23.145 115.307 65.169 157.331 97.899 65.169 157.331 65.169 115.307-23.145 157.331-65.169 65.169-97.899 65.169-157.331c0-49.498-16.629-97.755-46.937-136.672l12.811-12.81c33.663 42.393 52.126 95.149 52.126 149.482 0 132.612-107.888 240.5-240.5 240.5zm24.248-305.558c-6.086-2.891-12.934-3.238-19.279-.972-6.356 2.27-11.446 6.884-14.334 12.992l-11.108 23.505c-2.831-2.435-6.194-4.224-9.906-5.219-6.511-1.746-13.308-.847-19.143 2.531l-34.368 19.896c-12.036 6.968-16.177 22.451-9.23 34.515l19.843 34.46c3.01 5.229 7.678 9.121 13.284 11.139l-9.589 12.83c-8.332 11.147-6.063 27.016 5.058 35.372l35.782 26.886c4.413 3.316 9.664 5.06 15.084 5.06 1.202 0 2.413-.086 3.625-.259 6.677-.957 12.581-4.463 16.623-9.872l23.817-31.868c.896.22 1.812.395 2.751.505l44.833 5.293c.898.106 1.794.158 2.685.158 5.031 0 9.885-1.676 13.895-4.841 4.72-3.726 7.705-9.065 8.407-15.037l5.288-45.03c1.445-12.315-7.396-23.517-19.709-24.97l-31.868-3.762 15.416-32.619c5.949-12.59.569-27.688-11.992-33.654zm19.095 113.434c1.851 5.359-.987 11.227-6.325 13.078l-37.504 13.013c-2.574.894-5.341.729-7.791-.461-2.465-1.197-4.315-3.287-5.212-5.886l-12.979-37.602c-1.85-5.36.988-11.229 6.326-13.08l37.502-13.013c1.094-.38 2.223-.568 3.347-.568 1.522 0 3.037.346 4.446 1.03 2.464 1.197 4.314 3.287 5.211 5.886zm-123.465-33.669c-2.829-4.913-1.148-11.215 3.747-14.049l34.367-19.896c2.36-1.367 5.109-1.731 7.745-1.025 2.641.708 4.849 2.406 6.218 4.783l9.494 16.488-6.509 2.258c-13.138 4.56-20.131 18.979-15.588 32.146l4.094 11.86-9.763 5.652c-2.361 1.365-5.111 1.731-7.745 1.025-2.641-.708-4.849-2.407-6.218-4.783zm74.694 114.12c-1.64 2.193-4.031 3.615-6.735 4.003-2.699.389-5.388-.304-7.571-1.944l-35.782-26.886c-4.525-3.4-5.446-9.859-2.053-14.399l17.028-22.783c.587-.282 1.168-.581 1.738-.911l7.235-4.188 3.899 11.296c2.206 6.39 6.765 11.533 12.837 14.483 3.483 1.692 7.226 2.545 10.986 2.545 2.781 0 5.572-.466 8.277-1.404l8.914-3.093c.288 4.482 1.911 8.67 4.516 12.114zm98.793-83.59-5.288 45.03c-.233 1.991-1.229 3.771-2.802 5.013-1.574 1.242-3.538 1.794-5.527 1.561l-44.834-5.293c-4.104-.484-7.051-4.219-6.568-8.323l.353-3.006 13.235-4.592c13.14-4.559 20.133-18.979 15.589-32.145l-3.607-10.449 32.881 3.882c4.103.483 7.051 4.218 6.568 8.322zm-34.825-66.01-13.405 28.365-.591-1.712c-2.205-6.39-6.764-11.533-12.836-14.483-6.058-2.943-12.9-3.347-19.265-1.142l-16.568 5.749-6.494-11.279 14.817-31.352c1.173-2.481 3.237-4.354 5.814-5.274 2.565-.916 5.337-.778 7.799.394l35.863 17.039c5.106 2.424 7.289 8.569 4.866 13.695zm-124.919-57.337c6.934-2.035 39.397-12.8 49.226-38.414 10.793-28.123-10.674-61.204-11.594-62.599l-2.956-4.485-5.199 1.356c-1.616.421-39.703 10.648-50.494 38.771-2.635 6.865-3.338 14.023-2.896 20.946-.76-.361-1.531-.705-2.329-1.011-21.101-8.098-45.626 7.812-46.659 8.492l-4.486 2.957 1.356 5.199c.312 1.197 7.896 29.429 28.998 37.527 4.264 1.637 8.666 2.292 12.986 2.292 17.066 0 32.85-10.241 33.675-10.785zm-7.014-59.997c6.003-15.644 25.418-24.425 34.929-27.886 4.757 8.94 13.31 28.453 7.307 44.095-6.002 15.641-25.412 24.423-34.929 27.886-4.758-8.942-13.31-28.454-7.307-44.095zm-34.645 54.732c-8.951-3.436-15.008-14.349-18.021-21.898 6.619-3.282 18.596-7.901 28.062-4.27 8.961 3.439 15.021 14.373 18.033 21.932-7.294 3.601-19.114 7.674-28.074 4.236z" fill="url(#SVGID_3_)"/></g></svg>