<svg id="Capa_1" enable-background="new 0 0 511 511" height="512" viewBox="0 0 511 511" width="512" xmlns="http://www.w3.org/2000/svg" xmlns:xlink="http://www.w3.org/1999/xlink"><linearGradient id="SVGID_1_" gradientUnits="userSpaceOnUse" x1="255.5" x2="255.5" y1="112.5" y2="342.5"><stop offset=".00000036422" stop-color="#a7acff"/><stop offset="1" stop-color="#ffc8ff"/></linearGradient><linearGradient id="SVGID_2_" gradientUnits="userSpaceOnUse" x1="255.5" x2="255.5" y1="0" y2="511"><stop offset="0" stop-color="#004ea6"/><stop offset="1" stop-color="#ca42b2"/></linearGradient><g id="Filled_00000027597348885002360120000012595082067700379789_"><circle cx="255.5" cy="255.5" fill="#fff" r="248"/><circle cx="255.5" cy="255.5" fill="#fff" r="210"/><path d="m365.5 202.5h-30v-40c0-27.614-22.386-50-50-50h-60c-27.614 0-50 22.386-50 50v40h-30c-27.614 0-50 22.386-50 50v40c0 27.614 22.386 50 50 50h60c27.614 0 50-22.386 50-50 0 27.614 22.386 50 50 50h60c27.614 0 50-22.386 50-50v-40c0-27.614-22.386-50-50-50z" fill="url(#SVGID_1_)"/><path d="m365.5 195h-22.5v-32.5c0-31.706-25.794-57.5-57.5-57.5h-60c-31.706 0-57.5 25.794-57.5 57.5v32.5h-22.5c-31.706 0-57.5 25.794-57.5 57.5v40c0 31.706 25.794 57.5 57.5 57.5h60c21.405 0 40.101-11.765 50-29.159 9.898 17.395 28.595 29.159 50 29.159h60c31.706 0 57.5-25.794 57.5-57.5v-40c0-31.706-25.794-57.5-57.5-57.5zm42.5 57.5c0 23.435-19.065 42.5-42.5 42.5h-60c-20.875 0-38.27-15.132-41.824-35h21.824c29.163 0 53.306-21.827 56.995-50h23.005c23.435 0 42.5 19.065 42.5 42.5zm-182.5-132.5h60c23.435 0 42.5 19.065 42.5 42.5s-19.065 42.5-42.5 42.5h-60c-23.435 0-42.5-19.065-42.5-42.5s19.065-42.5 42.5-42.5zm0 100h60c16.82 0 31.976-7.261 42.5-18.811v1.311c0 23.435-19.065 42.5-42.5 42.5h-60c-23.435 0-42.5-19.065-42.5-42.5v-1.311c10.524 11.55 25.68 18.811 42.5 18.811zm-80-10h23.005c3.689 28.173 27.833 50 56.995 50h21.824c-3.554 19.868-20.949 35-41.824 35h-60c-23.435 0-42.5-19.065-42.5-42.5s19.065-42.5 42.5-42.5zm60 125h-60c-23.435 0-42.5-19.065-42.5-42.5v-1.311c10.524 11.55 25.68 18.811 42.5 18.811h60c16.82 0 31.976-7.261 42.5-18.811v1.311c0 23.435-19.065 42.5-42.5 42.5zm202.5-42.5c0 23.435-19.065 42.5-42.5 42.5h-60c-23.435 0-42.5-19.065-42.5-42.5v-1.311c10.524 11.55 25.68 18.811 42.5 18.811h60c16.821 0 31.976-7.261 42.5-18.811zm28.166-217.666c-48.258-48.258-112.419-74.834-180.666-74.834s-132.408 26.576-180.666 74.834c-48.257 48.258-74.834 112.419-74.834 180.666s26.577 132.408 74.834 180.666c48.258 48.258 112.419 74.834 180.666 74.834s132.408-26.576 180.666-74.834 74.834-112.419 74.834-180.666-26.576-132.408-74.834-180.666zm-180.666 421.166c-132.612 0-240.5-107.888-240.5-240.5s107.888-240.5 240.5-240.5 240.5 107.888 240.5 240.5-107.888 240.5-240.5 240.5zm153.796-394.296c-41.081-41.08-95.699-63.704-153.796-63.704-58.096 0-112.715 22.624-153.796 63.704-41.08 41.081-63.704 95.699-63.704 153.796s22.624 112.715 63.704 153.796c41.081 41.08 95.7 63.704 153.796 63.704 58.097 0 112.715-22.624 153.796-63.704 41.08-41.081 63.704-95.699 63.704-153.796s-22.624-112.715-63.704-153.796zm-153.796 356.296c-111.659 0-202.5-90.841-202.5-202.5s90.841-202.5 202.5-202.5 202.5 90.841 202.5 202.5-90.841 202.5-202.5 202.5z" fill="url(#SVGID_2_)"/></g></svg>